<svg width="32" height="32" viewBox="0 0 32 32" fill="none" xmlns="http://www.w3.org/2000/svg">
<rect width="32" height="32" fill="#F5F5F5"/>
<rect width="32" height="32" fill="white"/>
<path d="M31 16C31 24.2843 24.2843 31 16 31C7.71573 31 1 24.2843 1 16C1 7.71573 7.71573 1 16 1C24.2843 1 31 7.71573 31 16Z" fill="#F6F1E7"/>
<path d="M16.589 6.15343C16.6131 6.17194 18.5776 7.68554 17.7502 9.63771C16.9195 11.5973 13.5889 13.2591 13.5727 13.2672C13.5404 13.2424 11.5858 11.731 12.4114 9.78292C13.2416 7.82547 16.5661 6.16483 16.589 6.15343Z" fill="#738851"/>
<path d="M14.2094 10.9645L14.3 10.9836L16.3371 8.17798L16.2465 8.15888L16.1559 8.13978L14.1188 10.9454L14.2094 10.9645Z" fill="#F6F1E7"/>
<path d="M6.03196 8.80418C6.07174 8.78441 8.26501 7.70375 9.75825 8.91906C11.2649 10.1461 11.4889 13.248 11.4889 13.248C11.4497 13.2675 9.25611 14.3492 7.76267 13.1341C6.26079 11.9114 6.03347 8.82493 6.03196 8.80418Z" fill="#738851"/>
<path d="M7.02843 10L7.00846 10.0904L9.79456 12.1541L9.81453 12.0637L9.83449 11.9733L7.04839 9.90957L7.02843 10Z" fill="#F6F1E7"/>
<path d="M2.6208 16.8035C2.62394 16.7722 2.87499 14.3282 4.70431 13.7108C6.53233 13.0944 9.24948 14.5334 9.28828 14.554C9.28389 14.5976 9.03123 17.0307 7.20696 17.6466C5.373 18.2655 2.64225 16.8149 2.6208 16.8035Z" fill="#738851"/>
<path d="M4 16.1867L4.0566 16.26L7.42668 15.4453L7.37008 15.372L7.31349 15.2987L3.9434 16.1134L4 16.1867Z" fill="#F6F1E7"/>
<path d="M22.5283 16.75C22.6367 17.0226 22.7843 17.4059 22.9473 17.8672C23.2868 18.828 23.6896 20.1136 23.957 21.4316C24.2274 22.764 24.3447 24.0618 24.1621 25.0771C23.984 26.0676 23.5551 26.6645 22.8047 26.9023C22.6196 26.961 22.0554 27.043 21.125 27.1113C20.2304 27.177 19.0746 27.2257 17.7705 27.2432C15.1603 27.2781 11.9829 27.1886 9.13965 26.8721C8.7299 26.8264 8.47076 26.6744 8.28711 26.4697C8.09011 26.25 7.93319 25.9151 7.84082 25.4414C7.65302 24.4777 7.77234 23.1601 8.05664 21.7646C8.3369 20.3891 8.7594 19.0195 9.11523 17.9873C9.29224 17.4739 9.45165 17.0475 9.56641 16.75H22.5283Z" stroke="black" stroke-width="1.5"/>
<path d="M23.0587 17.6409C30.6167 16.7524 25.5206 22.0868 24.4293 23.3407" stroke="black" stroke-width="1.5"/>
</svg>
