<svg width="433" height="104" viewBox="0 0 433 104" fill="none" xmlns="http://www.w3.org/2000/svg">
<rect width="433" height="104" fill="#F5F5F5"/>
<g clip-path="url(#clip0_0_1)">
<rect width="433" height="104" fill="white"/>
<path d="M114 52C114 79.6142 91.6142 102 64 102C36.3858 102 14 79.6142 14 52C14 24.3858 36.3858 2 64 2C91.6142 2 114 24.3858 114 52Z" fill="#F6F1E7"/>
<path d="M83.1471 56.4511C83.1541 56.4692 83.1614 56.4874 83.1686 56.5058C83.4907 57.335 83.9383 58.5287 84.4362 59.9755C85.4348 62.8776 86.6233 66.7632 87.4117 70.7529C88.2075 74.7799 88.559 78.7356 88.0133 81.8525C87.4766 84.918 86.1675 86.8056 83.8815 87.5498C83.3177 87.7332 81.6437 87.9809 78.9176 88.1865C76.2892 88.3846 72.8962 88.5303 69.068 88.583C61.4055 88.6884 52.0773 88.4184 43.7272 87.4638C42.4931 87.3227 41.6878 86.8503 41.108 86.1865C40.4905 85.4792 40.0138 84.4179 39.736 82.9541C39.1733 79.9889 39.5337 75.9717 40.3698 71.7578C41.1956 67.5952 42.4397 63.4542 43.486 60.3378C44.0077 58.7839 44.4772 57.4938 44.8151 56.5947C44.8335 56.5456 44.8521 56.4979 44.8698 56.4511H83.1471Z" stroke="#443322" stroke-width="4"/>
<path d="M64.5011 23.4289C64.5011 23.4289 70.733 29.1277 67.0424 35.4529C63.3603 41.7631 51.1934 46.3128 51.1362 46.3341C51.0788 46.2815 44.9226 40.6065 48.5962 34.3107C52.2738 28.009 64.4124 23.4621 64.5011 23.4289Z" fill="#738851"/>
<line y1="-0.5" x2="14.9207" y2="-0.5" transform="matrix(0.549326 -0.835608 0.987597 0.157012 54.4075 40.3426)" stroke="#F6F1E7"/>
<path d="M22.241 27.8563C22.3312 27.8353 33.495 25.2464 39.9629 29.7662C46.4571 34.3049 45.758 44.2929 45.758 44.2929C45.69 44.3087 34.5094 46.9049 28.035 42.3801C21.568 37.8598 22.2354 27.9374 22.241 27.8563Z" fill="#738851"/>
<line y1="-0.5" x2="15.5851" y2="-0.5" transform="matrix(-0.788075 -0.61558 0.765585 -0.643334 39.479 40.1506)" stroke="#F6F1E7"/>
<path d="M40.5973 47.0097C40.6206 47.0661 44.2772 55.9754 38.3708 61.2001C32.4452 66.441 19.1393 65.9901 19.1393 65.9901C19.1094 65.9174 15.4661 57.0196 21.3669 51.7997C27.2677 46.5806 40.487 47.006 40.5973 47.0097Z" fill="#738851"/>
<line y1="-0.5" x2="16.0003" y2="-0.5" transform="matrix(0.784429 -0.620218 0.82096 0.570985 24.5402 60.925)" stroke="#F6F1E7"/>
<path d="M83.509 59.1321C110.137 58.4455 102.157 66.608 87.2532 79.2947" stroke="#443322" stroke-width="4"/>
<path d="M146.6 51.48L150.52 51.88C150.467 52.12 150.347 52.3333 150.16 52.52C149.973 52.68 149.653 52.8 149.2 52.88V71.32C149.2 71.4267 149.093 71.5333 148.88 71.64C148.667 71.7733 148.4 71.88 148.08 71.96C147.787 72.0667 147.48 72.12 147.16 72.12H146.6V51.48ZM136.44 56.92H154.04L155.8 54.8C155.8 54.8 155.907 54.88 156.12 55.04C156.333 55.2 156.613 55.4133 156.96 55.68C157.307 55.9467 157.667 56.24 158.04 56.56C158.413 56.8533 158.76 57.1333 159.08 57.4C158.973 57.8267 158.627 58.04 158.04 58.04H136.76L136.44 56.92ZM140.56 60.36L144.2 62.2C144.067 62.3867 143.893 62.52 143.68 62.6C143.493 62.68 143.173 62.6667 142.72 62.56C142 63.4667 141.093 64.4133 140 65.4C138.907 66.3867 137.693 67.32 136.36 68.2C135.027 69.0533 133.613 69.8 132.12 70.44L131.76 69.92C132.987 69.12 134.16 68.1733 135.28 67.08C136.427 65.9867 137.453 64.8667 138.36 63.72C139.293 62.5467 140.027 61.4267 140.56 60.36ZM152.48 60.88C154.533 61.44 156.24 62.0933 157.6 62.84C158.96 63.56 160.027 64.3067 160.8 65.08C161.573 65.8267 162.093 66.5467 162.36 67.24C162.653 67.9067 162.747 68.48 162.64 68.96C162.533 69.44 162.28 69.76 161.88 69.92C161.507 70.08 161.04 70.0267 160.48 69.76C160.053 68.7733 159.373 67.76 158.44 66.72C157.507 65.6533 156.467 64.64 155.32 63.68C154.2 62.72 153.12 61.92 152.08 61.28L152.48 60.88ZM129.64 40.24H140.12V35.52L144.12 35.92C144.093 36.1867 143.973 36.4133 143.76 36.6C143.573 36.7867 143.227 36.92 142.72 37V40.24H152.88V35.52L156.88 35.92C156.853 36.1867 156.733 36.4133 156.52 36.6C156.333 36.7867 155.987 36.92 155.48 37V40.24H160.84L162.76 37.8C162.76 37.8 162.88 37.8933 163.12 38.08C163.36 38.2667 163.653 38.52 164 38.84C164.373 39.1333 164.76 39.4533 165.16 39.8C165.56 40.1467 165.907 40.4667 166.2 40.76C166.12 41.16 165.773 41.36 165.16 41.36H155.48V44.64C155.48 44.7733 155.28 44.9333 154.88 45.12C154.48 45.3067 153.96 45.4133 153.32 45.44H152.88V41.36H142.72V44.84C142.72 44.9467 142.613 45.0533 142.4 45.16C142.187 45.2667 141.907 45.36 141.56 45.44C141.24 45.52 140.907 45.56 140.56 45.56H140.12V41.36H129.92L129.64 40.24ZM148.64 45C147.493 46.8133 145.933 48.6 143.96 50.36C141.987 52.12 139.76 53.7333 137.28 55.2C134.8 56.64 132.213 57.8133 129.52 58.72L129.28 58.16C131.093 57.3333 132.893 56.3333 134.68 55.16C136.493 53.96 138.173 52.6667 139.72 51.28C141.267 49.8667 142.613 48.4267 143.76 46.96C144.907 45.4667 145.72 44.04 146.2 42.68L151.04 43.8C150.987 43.9867 150.827 44.1467 150.56 44.28C150.32 44.3867 149.933 44.4667 149.4 44.52C150.253 45.72 151.293 46.84 152.52 47.88C153.773 48.92 155.147 49.8933 156.64 50.8C158.16 51.68 159.76 52.48 161.44 53.2C163.147 53.8933 164.867 54.48 166.6 54.96L166.56 55.56C165.92 55.6933 165.373 55.9733 164.92 56.4C164.493 56.8267 164.213 57.3067 164.08 57.84C161.813 56.96 159.68 55.88 157.68 54.6C155.68 53.2933 153.907 51.84 152.36 50.24C150.813 48.6133 149.573 46.8667 148.64 45ZM182.48 53.4H198.76V54.56H182.48V53.4ZM182.48 58.36H198.96V59.52H182.48V58.36ZM182.48 63.56H198.96V64.68H182.48V63.56ZM197.56 53.4H197.32L198.52 52.12L201.08 54.16C201 54.2133 200.867 54.2933 200.68 54.4C200.493 54.5067 200.293 54.5867 200.08 54.64V65.8C200.08 65.88 199.947 65.9867 199.68 66.12C199.44 66.2533 199.16 66.3733 198.84 66.48C198.52 66.5867 198.227 66.64 197.96 66.64H197.56V53.4ZM189.12 49.04L192.88 49.48C192.853 49.7467 192.733 49.9733 192.52 50.16C192.333 50.3467 192.027 50.48 191.6 50.56V68.16C191.6 68.5867 191.707 68.88 191.92 69.04C192.16 69.2 192.733 69.28 193.64 69.28H198.24C199.28 69.28 200.173 69.2667 200.92 69.24C201.667 69.2133 202.2 69.1867 202.52 69.16C202.947 69.16 203.253 69.0267 203.44 68.76C203.573 68.4933 203.747 67.96 203.96 67.16C204.173 66.36 204.387 65.48 204.6 64.52H205.12L205.24 68.84C205.72 69 206.04 69.16 206.2 69.32C206.387 69.48 206.48 69.68 206.48 69.92C206.48 70.3467 206.267 70.68 205.84 70.92C205.413 71.16 204.6 71.3333 203.4 71.44C202.2 71.5467 200.44 71.6 198.12 71.6H193.32C192.2 71.6 191.333 71.5067 190.72 71.32C190.107 71.16 189.68 70.8667 189.44 70.44C189.227 70.04 189.12 69.48 189.12 68.76V49.04ZM183.48 53.4V66.92C183.48 67.0267 183.293 67.2 182.92 67.44C182.547 67.6533 182.053 67.76 181.44 67.76H181.04V54.32L182.2 52.64L183.96 53.4H183.48ZM194.28 46.32C195 47.68 195.987 48.9333 197.24 50.08C198.52 51.2267 199.96 52.2133 201.56 53.04C203.16 53.8667 204.8 54.52 206.48 55L206.4 55.44C205.92 55.4933 205.507 55.7067 205.16 56.08C204.813 56.4267 204.56 56.88 204.4 57.44C202 56.3467 199.84 54.8933 197.92 53.08C196.027 51.24 194.587 49.1067 193.6 46.68L194.28 46.32ZM187.6 35.48L191.64 35.88C191.613 36.1467 191.48 36.3867 191.24 36.6C191.027 36.7867 190.68 36.9067 190.2 36.96V40.76H187.6V35.48ZM174.88 40.24H200.8L202.76 37.76C202.76 37.76 202.88 37.8667 203.12 38.08C203.36 38.2667 203.667 38.5067 204.04 38.8C204.413 39.0933 204.8 39.4133 205.2 39.76C205.6 40.1067 205.973 40.44 206.32 40.76C206.24 41.16 205.893 41.36 205.28 41.36H174.88V40.24ZM173.4 40.24V39.84V38.84L176.44 40.24H175.96V50.28C175.96 51.9333 175.907 53.6933 175.8 55.56C175.72 57.4267 175.507 59.32 175.16 61.24C174.813 63.16 174.253 65.0267 173.48 66.84C172.707 68.6267 171.667 70.3067 170.36 71.88L169.72 71.48C170.84 69.3733 171.653 67.1467 172.16 64.8C172.693 62.4267 173.027 60.0133 173.16 57.56C173.32 55.1067 173.4 52.6933 173.4 50.32V40.24ZM176.56 46.32H200.24L202.16 43.88C202.16 43.88 202.267 43.9867 202.48 44.2C202.72 44.3867 203.013 44.6267 203.36 44.92C203.733 45.2133 204.12 45.5333 204.52 45.88C204.92 46.2267 205.293 46.56 205.64 46.88C205.56 47.3067 205.2 47.52 204.56 47.52H176.88L176.56 46.32ZM187.72 41.28L191.56 42.88C191.453 43.0933 191.28 43.2667 191.04 43.4C190.8 43.5333 190.453 43.5733 190 43.52C188.96 45.92 187.707 48.0267 186.24 49.84C184.8 51.6533 183.2 53.2133 181.44 54.52C179.707 55.8267 177.853 56.9067 175.88 57.76L175.48 57.2C177.187 56.1867 178.813 54.9067 180.36 53.36C181.907 51.8133 183.307 50.0267 184.56 48C185.84 45.9733 186.893 43.7333 187.72 41.28ZM268.56 69.04C266 69.04 263.88 68.76 262.2 68.2C260.547 67.6133 259.253 66.8 258.32 65.76C257.413 64.72 256.84 63.48 256.6 62.04C256.387 60.6 256.453 59 256.8 57.24H257.88C257.88 58.52 257.987 59.7067 258.2 60.8C258.413 61.8933 258.853 62.8667 259.52 63.72C260.213 64.5467 261.24 65.1867 262.6 65.64C263.987 66.0933 265.827 66.32 268.12 66.32C270.44 66.32 272.333 66.2 273.8 65.96C275.267 65.6933 276.4 65.44 277.2 65.2C278.027 64.9333 278.613 64.8 278.96 64.8C279.307 64.8 279.64 64.8533 279.96 64.96C280.307 65.0667 280.587 65.2267 280.8 65.44C281.04 65.6533 281.16 65.9067 281.16 66.2C281.16 66.5733 281.04 66.8667 280.8 67.08C280.56 67.2933 280.133 67.5067 279.52 67.72C278.613 68.0133 277.253 68.3067 275.44 68.6C273.653 68.8933 271.36 69.04 268.56 69.04ZM263.08 49.48C264.067 48.8133 265.12 48.12 266.24 47.4C267.387 46.68 268.32 46.08 269.04 45.6C269.44 45.3333 269.387 45.1867 268.88 45.16C267.307 45.1867 265.907 45.1333 264.68 45C263.48 44.8667 262.373 44.5467 261.36 44.04C260.347 43.5333 259.347 42.7467 258.36 41.68L258.96 40.96C259.92 41.5733 260.8 42.04 261.6 42.36C262.427 42.68 263.253 42.8933 264.08 43C264.933 43.1067 265.88 43.16 266.92 43.16C268.12 43.16 269.093 43.12 269.84 43.04C270.613 42.96 271.24 42.8667 271.72 42.76C272.227 42.6267 272.653 42.52 273 42.44C273.373 42.36 273.76 42.32 274.16 42.32C274.507 42.32 274.893 42.3733 275.32 42.48C275.747 42.56 276.133 42.68 276.48 42.84C276.853 42.9733 277.147 43.1467 277.36 43.36C277.6 43.5733 277.72 43.7867 277.72 44C277.72 44.6133 277.253 45.0133 276.32 45.2C275.787 45.3067 275.187 45.4267 274.52 45.56C273.853 45.6933 273.013 45.9467 272 46.32C271.36 46.56 270.547 46.9067 269.56 47.36C268.6 47.8133 267.6 48.2933 266.56 48.8C265.52 49.3067 264.533 49.8 263.6 50.28L263.08 49.48ZM310.08 70.92C308.267 70.92 306.733 70.5733 305.48 69.88C304.253 69.2133 303.32 68.2667 302.68 67.04C302.067 65.8133 301.76 64.3867 301.76 62.76C301.76 61.7467 301.84 60.5733 302 59.24C302.187 57.9067 302.413 56.5467 302.68 55.16C302.973 53.7467 303.253 52.4267 303.52 51.2C303.813 49.9467 304.067 48.9067 304.28 48.08C304.573 47.0667 304.853 46.0933 305.12 45.16C305.387 44.2267 305.613 43.3867 305.8 42.64C306.013 41.8933 306.133 41.32 306.16 40.92C306.213 40.4133 306.16 40.0667 306 39.88C305.84 39.6667 305.587 39.4933 305.24 39.36C304.92 39.2 304.56 39.0667 304.16 38.96C303.787 38.8533 303.44 38.7867 303.12 38.76L303.16 37.84C303.507 37.7867 303.853 37.7467 304.2 37.72C304.573 37.6933 304.96 37.68 305.36 37.68C305.84 37.68 306.32 37.7867 306.8 38C307.307 38.1867 307.773 38.4533 308.2 38.8C308.627 39.12 308.973 39.4533 309.24 39.8C309.507 40.1467 309.64 40.4533 309.64 40.72C309.64 41.0933 309.52 41.4 309.28 41.64C309.067 41.8533 308.84 42.2133 308.6 42.72C308.307 43.3333 308 44.08 307.68 44.96C307.387 45.8133 307.013 46.96 306.56 48.4C306.293 49.2267 305.987 50.2667 305.64 51.52C305.293 52.7467 304.947 54.0533 304.6 55.44C304.28 56.8267 304.013 58.16 303.8 59.44C303.587 60.72 303.48 61.8267 303.48 62.76C303.48 64.76 304.067 66.24 305.24 67.2C306.44 68.1333 307.973 68.6 309.84 68.6C311.6 68.6 313.053 68.2667 314.2 67.6C315.347 66.9333 316.2 66.08 316.76 65.04C317.347 64 317.64 62.92 317.64 61.8C317.64 60.3333 317.36 59.0533 316.8 57.96C316.267 56.84 315.52 55.8133 314.56 54.88C313.6 53.9467 312.493 53.0267 311.24 52.12L311.8 51.44C313.88 52.48 315.533 53.5867 316.76 54.76C318.013 55.9067 318.92 57.1333 319.48 58.44C320.04 59.7467 320.32 61.12 320.32 62.56C320.32 63.52 320.107 64.4933 319.68 65.48C319.28 66.4667 318.653 67.3733 317.8 68.2C316.947 69.0267 315.88 69.68 314.6 70.16C313.32 70.6667 311.813 70.92 310.08 70.92ZM308.4 59.64C307.787 59.6933 306.96 59.7067 305.92 59.68C304.88 59.6533 303.747 59.5333 302.52 59.32C300.493 58.9733 298.92 58.3467 297.8 57.44C296.68 56.5333 296.12 55.48 296.12 54.28C296.12 53.56 296.36 52.84 296.84 52.12C297.32 51.3733 297.973 50.6667 298.8 50C299.653 49.3333 300.573 48.7467 301.56 48.24C301.053 48.08 300.56 47.92 300.08 47.76C299.627 47.5733 299.147 47.3067 298.64 46.96C297.893 46.48 297.307 45.9333 296.88 45.32C296.48 44.7067 296.147 43.9067 295.88 42.92L296.56 42.52C297.067 43.24 297.6 43.8933 298.16 44.48C298.72 45.04 299.4 45.48 300.2 45.8C301.72 46.44 303.187 46.7867 304.6 46.84C306.013 46.8667 307.307 46.9333 308.48 47.04C309.12 47.0933 309.573 47.2667 309.84 47.56C310.133 47.8533 310.28 48.1733 310.28 48.52C310.28 48.84 310.147 49.0933 309.88 49.28C309.613 49.44 309.24 49.5333 308.76 49.56C308.44 49.56 308 49.5467 307.44 49.52C306.88 49.4933 306.307 49.4667 305.72 49.44C305.16 49.4133 304.68 49.4 304.28 49.4C303.613 49.4 302.893 49.5333 302.12 49.8C301.373 50.0667 300.653 50.4267 299.96 50.88C299.293 51.3067 298.747 51.7867 298.32 52.32C297.92 52.8267 297.72 53.3333 297.72 53.84C297.72 54.24 297.853 54.64 298.12 55.04C298.413 55.44 298.92 55.8 299.64 56.12C300.387 56.44 301.453 56.6933 302.84 56.88C304.2 57.04 305.4 57.1067 306.44 57.08C307.48 57.0267 308.253 57.0267 308.76 57.08C309.24 57.1067 309.627 57.2267 309.92 57.44C310.213 57.6533 310.36 57.9733 310.36 58.4C310.36 58.7467 310.213 59.0267 309.92 59.24C309.653 59.4533 309.147 59.5867 308.4 59.64ZM359.4 67.76C357.987 67.76 356.827 67.3333 355.92 66.48C355.04 65.6 354.6 64.28 354.6 62.52C354.6 61.0267 354.733 59.5333 355 58.04C355.293 56.52 355.573 55.0133 355.84 53.52C356.133 52.0267 356.28 50.56 356.28 49.12C356.28 47.8667 356.08 46.92 355.68 46.28C355.28 45.6133 354.573 45.28 353.56 45.28C352.36 45.28 351.027 45.68 349.56 46.48C348.12 47.2533 346.653 48.3067 345.16 49.64C343.667 50.9467 342.227 52.3867 340.84 53.96L340.88 51.72C341.867 50.7867 342.92 49.8533 344.04 48.92C345.16 47.9867 346.307 47.1467 347.48 46.4C348.653 45.6267 349.827 45 351 44.52C352.173 44.04 353.307 43.8 354.4 43.8C355.787 43.8 356.88 44.24 357.68 45.12C358.48 45.9733 358.88 47.3333 358.88 49.2C358.88 50 358.787 50.92 358.6 51.96C358.44 53 358.24 54.12 358 55.32C357.787 56.4933 357.587 57.6667 357.4 58.84C357.24 60.0133 357.16 61.1067 357.16 62.12C357.16 63.1867 357.387 63.96 357.84 64.44C358.32 64.92 359.04 65.16 360 65.16C361.307 65.16 362.493 64.92 363.56 64.44C364.627 63.9333 365.733 63.1467 366.88 62.08L367.6 62.8C367.013 63.6267 366.293 64.4267 365.44 65.2C364.587 65.9467 363.653 66.56 362.64 67.04C361.627 67.52 360.547 67.76 359.4 67.76ZM331.4 66.76C331.107 66.76 330.853 66.6267 330.64 66.36C330.453 66.0933 330.36 65.76 330.36 65.36C330.36 64.9867 330.413 64.6667 330.52 64.4C330.627 64.1067 330.853 63.76 331.2 63.36C331.68 62.88 332.32 62.16 333.12 61.2C333.92 60.2133 334.787 59.1067 335.72 57.88C336.68 56.6533 337.6 55.4133 338.48 54.16C339.387 52.88 340.173 51.68 340.84 50.56L340.76 54.08C340.253 54.9067 339.653 55.8267 338.96 56.84C338.293 57.8267 337.6 58.84 336.88 59.88C336.16 60.92 335.44 61.9333 334.72 62.92C334.027 63.88 333.4 64.76 332.84 65.56C332.6 65.9067 332.373 66.2 332.16 66.44C331.947 66.6533 331.693 66.76 331.4 66.76ZM340.4 71C340.053 71 339.773 70.8933 339.56 70.68C339.347 70.4667 339.187 70.12 339.08 69.64C338.973 69.16 338.88 68.7333 338.8 68.36C338.72 67.9867 338.587 67.5733 338.4 67.12C338.267 66.8 338.067 66.3867 337.8 65.88C337.533 65.3733 337.227 64.8133 336.88 64.2C336.533 63.5867 336.173 63 335.8 62.44C335.427 61.88 335.08 61.3867 334.76 60.96L335.4 60.08C335.8 60.6133 336.24 61.2267 336.72 61.92C337.227 62.5867 337.707 63.2267 338.16 63.84C338.613 64.4267 338.96 64.8667 339.2 65.16C339.573 65.56 339.76 65.4667 339.76 64.88C339.76 64.1067 339.747 63.1067 339.72 61.88C339.693 60.6267 339.68 59.2667 339.68 57.8C339.68 56.3333 339.733 54.8933 339.84 53.48C339.947 52.0933 340.067 50.7467 340.2 49.44C340.36 48.1067 340.507 46.88 340.64 45.76C340.8 44.64 340.933 43.64 341.04 42.76C341.173 41.88 341.24 41.1733 341.24 40.64C341.24 40.1867 341.173 39.88 341.04 39.72C340.933 39.56 340.693 39.4133 340.32 39.28C340.08 39.2 339.773 39.1067 339.4 39C339.027 38.8933 338.627 38.8 338.2 38.72L338.16 37.92C338.507 37.8133 338.88 37.72 339.28 37.64C339.707 37.5333 340.147 37.48 340.6 37.48C341 37.48 341.413 37.5733 341.84 37.76C342.293 37.9467 342.693 38.2 343.04 38.52C343.413 38.8133 343.707 39.1333 343.92 39.48C344.16 39.8 344.28 40.1067 344.28 40.4C344.28 40.8 344.173 41.1733 343.96 41.52C343.773 41.84 343.573 42.4 343.36 43.2C343.227 43.5733 343.067 44.0933 342.88 44.76C342.72 45.4267 342.547 46.2 342.36 47.08C342.173 47.9333 342 48.8533 341.84 49.84C341.707 50.8267 341.6 51.8133 341.52 52.8C341.413 54.3467 341.373 55.92 341.4 57.52C341.453 59.0933 341.52 60.5333 341.6 61.84C341.707 63.12 341.8 64.1867 341.88 65.04C341.933 65.5467 341.973 66.0267 342 66.48C342.053 66.9067 342.08 67.3333 342.08 67.76C342.08 68.2133 342.013 68.6933 341.88 69.2C341.747 69.7067 341.56 70.1333 341.32 70.48C341.08 70.8267 340.773 71 340.4 71ZM334.64 52.2C334.267 52.2 333.84 52.0533 333.36 51.76C332.907 51.4667 332.493 51.1067 332.12 50.68C331.747 50.2267 331.493 49.7867 331.36 49.36C331.28 49.0667 331.227 48.7733 331.2 48.48C331.173 48.16 331.173 47.8667 331.2 47.6L331.92 47.36C332.24 48 332.547 48.48 332.84 48.8C333.16 49.12 333.493 49.28 333.84 49.28C334.107 49.28 334.573 49.16 335.24 48.92C335.933 48.6533 336.68 48.3333 337.48 47.96C338.28 47.5867 339.013 47.24 339.68 46.92C340.347 46.5733 340.813 46.32 341.08 46.16C341.32 46.0267 341.52 45.9467 341.68 45.92C341.84 45.8667 342.04 45.8933 342.28 46C342.493 46.1067 342.733 46.28 343 46.52C343.293 46.7333 343.533 46.96 343.72 47.2C343.907 47.4133 344 47.6 344 47.76C344 48 343.907 48.2267 343.72 48.44C343.533 48.6267 343.32 48.88 343.08 49.2C342.733 49.5733 342.387 50 342.04 50.48C341.72 50.96 341.387 51.4667 341.04 52L341.2 49.68C341.307 49.4667 341.427 49.2 341.56 48.88C341.693 48.56 341.8 48.24 341.88 47.92C341.293 48.1867 340.667 48.4933 340 48.84C339.36 49.16 338.747 49.4933 338.16 49.84C337.573 50.1867 337.04 50.4933 336.56 50.76C336.293 50.9467 336.053 51.1467 335.84 51.36C335.653 51.5733 335.467 51.7733 335.28 51.96C335.093 52.12 334.88 52.2 334.64 52.2ZM402.32 44.88C402 44.8533 401.72 44.64 401.48 44.24C401.267 43.84 400.973 43.36 400.6 42.8C400.253 42.24 399.84 41.6667 399.36 41.08C398.907 40.4933 398.28 39.8667 397.48 39.2L398.08 38.56C399.04 39.04 399.827 39.52 400.44 40C401.08 40.48 401.627 40.96 402.08 41.44C402.533 41.92 402.853 42.36 403.04 42.76C403.227 43.1333 403.307 43.52 403.28 43.92C403.253 44.24 403.147 44.4933 402.96 44.68C402.8 44.84 402.587 44.9067 402.32 44.88ZM383.88 71.04C382.627 71.04 381.4 70.8667 380.2 70.52C379.027 70.1733 377.96 69.6133 377 68.84C376.04 68.04 375.267 67.0133 374.68 65.76C374.12 64.48 373.84 62.92 373.84 61.08C373.84 59.1067 374.16 57.1867 374.8 55.32C375.44 53.4533 376.307 51.6667 377.4 49.96C378.52 48.2267 379.747 46.6267 381.08 45.16C380.627 45.24 380.133 45.3067 379.6 45.36C379.067 45.3867 378.507 45.3733 377.92 45.32C377.12 45.24 376.413 45.0267 375.8 44.68C375.187 44.3067 374.52 43.6533 373.8 42.72L374.24 42.12C374.88 42.44 375.507 42.7067 376.12 42.92C376.733 43.1067 377.373 43.2 378.04 43.2C378.707 43.2 379.347 43.16 379.96 43.08C380.573 42.9733 381.16 42.8267 381.72 42.64C382.307 42.4533 382.84 42.2533 383.32 42.04C383.933 41.7467 384.36 41.5333 384.6 41.4C384.867 41.2667 385.12 41.2 385.36 41.2C385.707 41.2 386.04 41.3067 386.36 41.52C386.707 41.7067 386.987 41.9333 387.2 42.2C387.44 42.44 387.56 42.6533 387.56 42.84C387.56 43.08 387.493 43.28 387.36 43.44C387.227 43.6 386.973 43.76 386.6 43.92C386.12 44.1333 385.56 44.3733 384.92 44.64C384.28 44.88 383.64 45.2933 383 45.88C382.387 46.3867 381.667 47.1333 380.84 48.12C380.04 49.08 379.253 50.2267 378.48 51.56C377.733 52.8667 377.107 54.32 376.6 55.92C376.093 57.4933 375.84 59.1467 375.84 60.88C375.84 62.5333 376.2 63.92 376.92 65.04C377.667 66.1333 378.64 66.96 379.84 67.52C381.04 68.0533 382.333 68.32 383.72 68.32C385.72 68.32 387.413 67.9467 388.8 67.2C390.187 66.4533 391.307 65.4133 392.16 64.08C393.04 62.72 393.68 61.1333 394.08 59.32C394.48 57.5067 394.68 55.5467 394.68 53.44C394.68 52.1333 394.64 50.96 394.56 49.92C394.507 48.8533 394.36 47.7467 394.12 46.6C394.067 46.2533 393.987 45.8533 393.88 45.4C393.8 44.92 393.72 44.44 393.64 43.96C393.587 43.48 393.56 43.0533 393.56 42.68C393.56 41.9867 393.693 41.4667 393.96 41.12C394.253 40.7733 394.6 40.6 395 40.6C395.347 40.6 395.627 40.6933 395.84 40.88C396.053 41.04 396.227 41.2667 396.36 41.56C396.493 41.8533 396.56 42.1867 396.56 42.56C396.56 43.6 396.587 44.72 396.64 45.92C396.72 47.0933 396.84 48.2 397 49.24C397.293 50.6533 397.773 51.9067 398.44 53C399.133 54.0933 399.867 55.0533 400.64 55.88C401.413 56.68 402.08 57.3467 402.64 57.88C402.96 58.12 403.227 58.4133 403.44 58.76C403.68 59.1067 403.813 59.5867 403.84 60.2C403.84 60.5467 403.76 60.8667 403.6 61.16C403.44 61.4267 403.2 61.56 402.88 61.56C402.56 61.56 402.213 61.4533 401.84 61.24C401.493 61.0267 401.147 60.72 400.8 60.32C400.373 59.8133 399.92 59.24 399.44 58.6C398.96 57.96 398.493 57.2133 398.04 56.36C397.587 55.5067 397.147 54.5467 396.72 53.48C396.533 52.92 396.36 52.6533 396.2 52.68C396.067 52.68 396 52.9867 396 53.6C396 54.1067 395.987 54.7333 395.96 55.48C395.96 56.2 395.933 57 395.88 57.88C395.827 58.76 395.733 59.6933 395.6 60.68C395.44 61.8533 395.12 63.0533 394.64 64.28C394.16 65.5067 393.453 66.6267 392.52 67.64C391.613 68.6533 390.453 69.4667 389.04 70.08C387.627 70.72 385.907 71.04 383.88 71.04ZM405.64 42C405.373 42 405.12 41.8 404.88 41.4C404.667 40.9733 404.347 40.52 403.92 40.04C403.52 39.5067 403.08 38.9867 402.6 38.48C402.147 37.9467 401.493 37.36 400.64 36.72L401.16 36.08C402.147 36.48 402.973 36.88 403.64 37.28C404.307 37.6533 404.867 38.0667 405.32 38.52C405.827 39 406.187 39.4533 406.4 39.88C406.613 40.28 406.693 40.6667 406.64 41.04C406.64 41.36 406.547 41.6133 406.36 41.8C406.2 41.96 405.96 42.0267 405.64 42Z" fill="#443322"/>
</g>
<defs>
<clipPath id="clip0_0_1">
<rect width="433" height="104" fill="white"/>
</clipPath>
</defs>
</svg>
